<svg style="display: none;" aria-hidden="true" xmlns="http://www.w3.org/2000/svg" xmlns:xlink="http://www.w3.org/1999/xlink"><symbol viewBox="0 0 26 26" fill="none" id="svg-arrow-circle-left"><path d="M13 0C10.4288 0 7.91543 0.762437 5.77759 2.1909C3.63975 3.61935 1.97351 5.64968 0.989572 8.02512C0.00563269 10.4006 -0.251811 13.0144 0.249797 15.5362C0.751405 18.0579 1.98953 20.3743 3.80762 22.1924C5.6257 24.0105 7.94208 25.2486 10.4638 25.7502C12.9856 26.2518 15.5995 25.9944 17.9749 25.0104C20.3503 24.0265 22.3807 22.3603 23.8091 20.2224C25.2376 18.0846 26 15.5712 26 13C25.9964 9.5533 24.6256 6.24882 22.1884 3.81163C19.7512 1.37445 16.4467 0.00363977 13 0ZM13 24C10.8244 24 8.69767 23.3549 6.88873 22.1462C5.07979 20.9375 3.66989 19.2195 2.83733 17.2095C2.00477 15.1995 1.78693 12.9878 2.21137 10.854C2.63581 8.72022 3.68345 6.7602 5.22183 5.22183C6.76021 3.68345 8.72022 2.6358 10.854 2.21136C12.9878 1.78692 15.1995 2.00476 17.2095 2.83733C19.2195 3.66989 20.9375 5.07979 22.1462 6.88873C23.3549 8.69767 24 10.8244 24 13C23.9967 15.9164 22.8367 18.7123 20.7745 20.7745C18.7123 22.8367 15.9164 23.9967 13 24ZM19 13C19 13.2652 18.8946 13.5196 18.7071 13.7071C18.5196 13.8946 18.2652 14 18 14H10.4138L12.7075 16.2925C12.8004 16.3854 12.8741 16.4957 12.9244 16.6171C12.9747 16.7385 13.0006 16.8686 13.0006 17C13.0006 17.1314 12.9747 17.2615 12.9244 17.3829C12.8741 17.5043 12.8004 17.6146 12.7075 17.7075C12.6146 17.8004 12.5043 17.8741 12.3829 17.9244C12.2615 17.9747 12.1314 18.0006 12 18.0006C11.8686 18.0006 11.7385 17.9747 11.6171 17.9244C11.4957 17.8741 11.3854 17.8004 11.2925 17.7075L7.29251 13.7075C7.19953 13.6146 7.12577 13.5043 7.07545 13.3829C7.02512 13.2615 6.99922 13.1314 6.99922 13C6.99922 12.8686 7.02512 12.7385 7.07545 12.6171C7.12577 12.4957 7.19953 12.3854 7.29251 12.2925L11.2925 8.2925C11.4801 8.10486 11.7346 7.99944 12 7.99944C12.2654 7.99944 12.5199 8.10486 12.7075 8.2925C12.8951 8.48014 13.0006 8.73464 13.0006 9C13.0006 9.26536 12.8951 9.51986 12.7075 9.7075L10.4138 12H18C18.2652 12 18.5196 12.1054 18.7071 12.2929C18.8946 12.4804 19 12.7348 19 13Z" fill="currentColor"/></symbol><symbol viewBox="0 0 24 24" fill="none" id="svg-arrow-circle-right"><path d="M12 2.25C10.0716 2.25 8.18657 2.82183 6.58319 3.89317C4.97982 4.96451 3.73013 6.48726 2.99218 8.26884C2.25422 10.0504 2.06114 12.0108 2.43735 13.9021C2.81355 15.7934 3.74215 17.5307 5.10571 18.8943C6.46928 20.2579 8.20656 21.1865 10.0979 21.5627C11.9892 21.9389 13.9496 21.7458 15.7312 21.0078C17.5127 20.2699 19.0355 19.0202 20.1068 17.4168C21.1782 15.8134 21.75 13.9284 21.75 12C21.7473 9.41498 20.7192 6.93661 18.8913 5.10872C17.0634 3.28084 14.585 2.25273 12 2.25ZM12 20.25C10.3683 20.25 8.77326 19.7661 7.41655 18.8596C6.05984 17.9531 5.00242 16.6646 4.378 15.1571C3.75358 13.6496 3.5902 11.9908 3.90853 10.3905C4.22685 8.79016 5.01259 7.32015 6.16637 6.16637C7.32016 5.01259 8.79017 4.22685 10.3905 3.90852C11.9909 3.59019 13.6497 3.75357 15.1571 4.37799C16.6646 5.00242 17.9531 6.05984 18.8596 7.41655C19.7661 8.77325 20.25 10.3683 20.25 12C20.2475 14.1873 19.3775 16.2843 17.8309 17.8309C16.2843 19.3775 14.1873 20.2475 12 20.25ZM16.2806 11.4694C16.3504 11.539 16.4057 11.6217 16.4434 11.7128C16.4812 11.8038 16.5006 11.9014 16.5006 12C16.5006 12.0986 16.4812 12.1962 16.4434 12.2872C16.4057 12.3783 16.3504 12.461 16.2806 12.5306L13.2806 15.5306C13.1399 15.6714 12.949 15.7504 12.75 15.7504C12.551 15.7504 12.3601 15.6714 12.2194 15.5306C12.0786 15.3899 11.9996 15.199 11.9996 15C11.9996 14.801 12.0786 14.6101 12.2194 14.4694L13.9397 12.75H8.25C8.05109 12.75 7.86033 12.671 7.71967 12.5303C7.57902 12.3897 7.5 12.1989 7.5 12C7.5 11.8011 7.57902 11.6103 7.71967 11.4697C7.86033 11.329 8.05109 11.25 8.25 11.25H13.9397L12.2194 9.53063C12.0786 9.38989 11.9996 9.19902 11.9996 9C11.9996 8.80098 12.0786 8.61011 12.2194 8.46937C12.3601 8.32864 12.551 8.24958 12.75 8.24958C12.949 8.24958 13.1399 8.32864 13.2806 8.46937L16.2806 11.4694Z" fill="currentColor"/></symbol><symbol viewBox="15 15 24 24" fill="none" id="svg-arrow-right"><path d="M35.6475 27.3971L28.8975 34.1471C28.7909 34.2465 28.6498 34.3006 28.5041 34.298C28.3584 34.2955 28.2193 34.2364 28.1163 34.1334C28.0132 34.0303 27.9542 33.8913 27.9516 33.7455C27.949 33.5998 28.0031 33.4588 28.1025 33.3521L33.8916 27.5621H18.75C18.6008 27.5621 18.4577 27.5029 18.3523 27.3974C18.2468 27.2919 18.1875 27.1488 18.1875 26.9996C18.1875 26.8505 18.2468 26.7074 18.3523 26.6019C18.4577 26.4964 18.6008 26.4371 18.75 26.4371H33.8916L28.1025 20.6471C28.0031 20.5405 27.949 20.3995 27.9516 20.2537C27.9542 20.108 28.0132 19.969 28.1163 19.8659C28.2193 19.7629 28.3584 19.7038 28.5041 19.7013C28.6498 19.6987 28.7909 19.7528 28.8975 19.8521L35.6475 26.6021C35.7528 26.7076 35.812 26.8506 35.812 26.9996C35.812 27.1487 35.7528 27.2917 35.6475 27.3971Z" fill="currentColor"/></symbol><symbol viewBox="0 0 24 24" fill="none" id="svg-calendar-dots"><path d="M19.5 3H17.25V2.25C17.25 2.05109 17.171 1.86032 17.0303 1.71967C16.8897 1.57902 16.6989 1.5 16.5 1.5C16.3011 1.5 16.1103 1.57902 15.9697 1.71967C15.829 1.86032 15.75 2.05109 15.75 2.25V3H8.25V2.25C8.25 2.05109 8.17098 1.86032 8.03033 1.71967C7.88968 1.57902 7.69891 1.5 7.5 1.5C7.30109 1.5 7.11032 1.57902 6.96967 1.71967C6.82902 1.86032 6.75 2.05109 6.75 2.25V3H4.5C4.10218 3 3.72064 3.15804 3.43934 3.43934C3.15804 3.72064 3 4.10218 3 4.5V19.5C3 19.8978 3.15804 20.2794 3.43934 20.5607C3.72064 20.842 4.10218 21 4.5 21H19.5C19.8978 21 20.2794 20.842 20.5607 20.5607C20.842 20.2794 21 19.8978 21 19.5V4.5C21 4.10218 20.842 3.72064 20.5607 3.43934C20.2794 3.15804 19.8978 3 19.5 3ZM6.75 4.5V5.25C6.75 5.44891 6.82902 5.63968 6.96967 5.78033C7.11032 5.92098 7.30109 6 7.5 6C7.69891 6 7.88968 5.92098 8.03033 5.78033C8.17098 5.63968 8.25 5.44891 8.25 5.25V4.5H15.75V5.25C15.75 5.44891 15.829 5.63968 15.9697 5.78033C16.1103 5.92098 16.3011 6 16.5 6C16.6989 6 16.8897 5.92098 17.0303 5.78033C17.171 5.63968 17.25 5.44891 17.25 5.25V4.5H19.5V7.5H4.5V4.5H6.75ZM19.5 19.5H4.5V9H19.5V19.5ZM13.125 12.375C13.125 12.5975 13.059 12.815 12.9354 13C12.8118 13.185 12.6361 13.3292 12.4305 13.4144C12.225 13.4995 11.9988 13.5218 11.7805 13.4784C11.5623 13.435 11.3618 13.3278 11.2045 13.1705C11.0472 13.0132 10.94 12.8127 10.8966 12.5945C10.8532 12.3762 10.8755 12.15 10.9606 11.9445C11.0458 11.7389 11.19 11.5632 11.375 11.4396C11.56 11.316 11.7775 11.25 12 11.25C12.2984 11.25 12.5845 11.3685 12.7955 11.5795C13.0065 11.7905 13.125 12.0766 13.125 12.375ZM17.25 12.375C17.25 12.5975 17.184 12.815 17.0604 13C16.9368 13.185 16.7611 13.3292 16.5555 13.4144C16.35 13.4995 16.1238 13.5218 15.9055 13.4784C15.6873 13.435 15.4868 13.3278 15.3295 13.1705C15.1722 13.0132 15.065 12.8127 15.0216 12.5945C14.9782 12.3762 15.0005 12.15 15.0856 11.9445C15.1708 11.7389 15.315 11.5632 15.5 11.4396C15.685 11.316 15.9025 11.25 16.125 11.25C16.4234 11.25 16.7095 11.3685 16.9205 11.5795C17.1315 11.7905 17.25 12.0766 17.25 12.375ZM9 16.125C9 16.3475 8.93402 16.565 8.8104 16.75C8.68679 16.935 8.51109 17.0792 8.30552 17.1644C8.09995 17.2495 7.87375 17.2718 7.65552 17.2284C7.43729 17.185 7.23684 17.0778 7.0795 16.9205C6.92217 16.7632 6.81502 16.5627 6.77162 16.3445C6.72821 16.1262 6.75049 15.9 6.83564 15.6945C6.92078 15.4889 7.06498 15.3132 7.24998 15.1896C7.43499 15.066 7.6525 15 7.875 15C8.17337 15 8.45952 15.1185 8.6705 15.3295C8.88147 15.5405 9 15.8266 9 16.125ZM13.125 16.125C13.125 16.3475 13.059 16.565 12.9354 16.75C12.8118 16.935 12.6361 17.0792 12.4305 17.1644C12.225 17.2495 11.9988 17.2718 11.7805 17.2284C11.5623 17.185 11.3618 17.0778 11.2045 16.9205C11.0472 16.7632 10.94 16.5627 10.8966 16.3445C10.8532 16.1262 10.8755 15.9 10.9606 15.6945C11.0458 15.4889 11.19 15.3132 11.375 15.1896C11.56 15.066 11.7775 15 12 15C12.2984 15 12.5845 15.1185 12.7955 15.3295C13.0065 15.5405 13.125 15.8266 13.125 16.125ZM17.25 16.125C17.25 16.3475 17.184 16.565 17.0604 16.75C16.9368 16.935 16.7611 17.0792 16.5555 17.1644C16.35 17.2495 16.1238 17.2718 15.9055 17.2284C15.6873 17.185 15.4868 17.0778 15.3295 16.9205C15.1722 16.7632 15.065 16.5627 15.0216 16.3445C14.9782 16.1262 15.0005 15.9 15.0856 15.6945C15.1708 15.4889 15.315 15.3132 15.5 15.1896C15.685 15.066 15.9025 15 16.125 15C16.4234 15 16.7095 15.1185 16.9205 15.3295C17.1315 15.5405 17.25 15.8266 17.25 16.125Z" fill="currentColor"/></symbol><symbol viewBox="0 0 12 12" fill="none" id="svg-caret-down"><path d="M10.0154 4.76531L6.26536 8.51531C6.23054 8.55018 6.18918 8.57784 6.14365 8.59671C6.09813 8.61558 6.04933 8.62529 6.00005 8.62529C5.95077 8.62529 5.90197 8.61558 5.85645 8.59671C5.81092 8.57784 5.76957 8.55018 5.73474 8.51531L1.98474 4.76531C1.93223 4.71287 1.89647 4.64602 1.88198 4.57324C1.86748 4.50046 1.87491 4.42501 1.90332 4.35645C1.93172 4.28789 1.97984 4.22931 2.04156 4.1881C2.10328 4.1469 2.17584 4.12494 2.25005 4.125H9.75005C9.82426 4.12494 9.89682 4.1469 9.95855 4.1881C10.0203 4.22931 10.0684 4.28789 10.0968 4.35645C10.1252 4.42501 10.1326 4.50046 10.1181 4.57324C10.1036 4.64602 10.0679 4.71287 10.0154 4.76531Z" fill="currentColor"/></symbol><symbol preserveAspectRatio="none" viewBox="0 0 11.0008 6.00039" fill="none" id="svg-caret-down-sm"><path d="M10.8541 0.85375L5.85414 5.85375C5.80771 5.90024 5.75256 5.93712 5.69186 5.96228C5.63117 5.98744 5.5661 6.00039 5.50039 6.00039C5.43469 6.00039 5.36962 5.98744 5.30892 5.96228C5.24823 5.93712 5.19308 5.90024 5.14664 5.85375L0.146644 0.85375C0.0766381 0.783823 0.0289543 0.694696 0.00962914 0.597654C-0.00969606 0.500611 0.000206247 0.400016 0.0380825 0.308605C0.0759587 0.217193 0.140106 0.139075 0.222403 0.08414C0.3047 0.0292046 0.401446 -7.77138e-05 0.500394 1.549e-07H10.5004C10.5993 -7.77138e-05 10.6961 0.0292046 10.7784 0.08414C10.8607 0.139075 10.9248 0.217193 10.9627 0.308605C11.0006 0.400016 11.0105 0.500611 10.9912 0.597654C10.9718 0.694696 10.9242 0.783823 10.8541 0.85375Z" fill="currentColor"/></symbol><symbol viewBox="0 0 24 24" fill="none" id="svg-cart"><path d="M21.4322 5.64C21.3794 5.57662 21.3133 5.52563 21.2386 5.49064C21.1639 5.45564 21.0825 5.4375 21 5.4375H5.71875L5.12156 2.14969C5.09807 2.02008 5.02984 1.90282 4.92876 1.81836C4.82768 1.73389 4.70016 1.68758 4.56844 1.6875H2.25C2.10082 1.6875 1.95774 1.74676 1.85225 1.85225C1.74676 1.95774 1.6875 2.10082 1.6875 2.25C1.6875 2.39918 1.74676 2.54226 1.85225 2.64775C1.95774 2.75324 2.10082 2.8125 2.25 2.8125H4.09875L6.51844 16.1194C6.5943 16.5389 6.79873 16.9246 7.10344 17.2228C6.73521 17.5169 6.46015 17.9115 6.31155 18.3587C6.16295 18.806 6.14719 19.2867 6.26617 19.7427C6.38516 20.1987 6.63378 20.6105 6.98195 20.9281C7.33011 21.2457 7.76289 21.4556 8.22788 21.5323C8.69286 21.609 9.17012 21.5493 9.60187 21.3604C10.0336 21.1714 10.4013 20.8614 10.6605 20.4678C10.9197 20.0742 11.0592 19.6139 11.0622 19.1426C11.0651 18.6714 10.9314 18.2093 10.6772 17.8125H15.5728C15.2813 18.2687 15.15 18.8089 15.1995 19.348C15.249 19.8871 15.4766 20.3943 15.8463 20.7897C16.216 21.1852 16.7069 21.4463 17.2414 21.5318C17.776 21.6174 18.3238 21.5226 18.7985 21.2624C19.2732 21.0022 19.6478 20.5913 19.8631 20.0946C20.0785 19.598 20.1223 19.0437 19.9878 18.5194C19.8533 17.995 19.5481 17.5303 19.1203 17.1986C18.6924 16.8669 18.1663 16.6871 17.625 16.6875H8.54719C8.32763 16.6875 8.11503 16.6105 7.94644 16.4698C7.77786 16.3292 7.66399 16.1338 7.62469 15.9178L7.28719 14.0625H18.3844C18.8674 14.0626 19.3352 13.8932 19.7061 13.5838C20.077 13.2744 20.3276 12.8446 20.4141 12.3694L21.5531 6.10031C21.5678 6.01941 21.5646 5.93627 21.5437 5.85674C21.5228 5.7772 21.4848 5.70322 21.4322 5.64ZM9.9375 19.125C9.9375 19.3846 9.86052 19.6383 9.7163 19.8542C9.57208 20.07 9.3671 20.2383 9.12727 20.3376C8.88744 20.4369 8.62354 20.4629 8.36894 20.4123C8.11434 20.3616 7.88048 20.2366 7.69692 20.0531C7.51337 19.8695 7.38836 19.6357 7.33772 19.3811C7.28708 19.1265 7.31307 18.8626 7.41241 18.6227C7.51175 18.3829 7.67997 18.1779 7.89581 18.0337C8.11165 17.8895 8.36541 17.8125 8.625 17.8125C8.9731 17.8125 9.30694 17.9508 9.55308 18.1969C9.79922 18.4431 9.9375 18.7769 9.9375 19.125ZM18.9375 19.125C18.9375 19.3846 18.8605 19.6383 18.7163 19.8542C18.5721 20.07 18.3671 20.2383 18.1273 20.3376C17.8874 20.4369 17.6235 20.4629 17.3689 20.4123C17.1143 20.3616 16.8805 20.2366 16.6969 20.0531C16.5134 19.8695 16.3884 19.6357 16.3377 19.3811C16.2871 19.1265 16.3131 18.8626 16.4124 18.6227C16.5117 18.3829 16.68 18.1779 16.8958 18.0337C17.1117 17.8895 17.3654 17.8125 17.625 17.8125C17.9731 17.8125 18.3069 17.9508 18.5531 18.1969C18.7992 18.4431 18.9375 18.7769 18.9375 19.125ZM19.3069 12.1678C19.2676 12.3838 19.1537 12.5792 18.9851 12.7198C18.8165 12.8605 18.6039 12.9375 18.3844 12.9375H7.08281L5.92406 6.5625H20.3259L19.3069 12.1678Z" fill="currentColor"/></symbol><symbol preserveAspectRatio="none" viewBox="0 0 26 26" fill="none" id="svg-check-circle-outline"><path d="M18.7075 9.2925C18.8005 9.38537 18.8742 9.49566 18.9246 9.61706C18.9749 9.73846 19.0008 9.86858 19.0008 10C19.0008 10.1314 18.9749 10.2615 18.9246 10.3829C18.8742 10.5043 18.8005 10.6146 18.7075 10.7075L11.7075 17.7075C11.6146 17.8005 11.5043 17.8742 11.3829 17.9246C11.2615 17.9749 11.1314 18.0008 11 18.0008C10.8686 18.0008 10.7385 17.9749 10.6171 17.9246C10.4957 17.8742 10.3854 17.8005 10.2925 17.7075L7.29251 14.7075C7.10486 14.5199 6.99945 14.2654 6.99945 14C6.99945 13.7346 7.10486 13.4801 7.29251 13.2925C7.48015 13.1049 7.73464 12.9994 8.00001 12.9994C8.26537 12.9994 8.51987 13.1049 8.70751 13.2925L11 15.5863L17.2925 9.2925C17.3854 9.19952 17.4957 9.12576 17.6171 9.07544C17.7385 9.02512 17.8686 8.99921 18 8.99921C18.1314 8.99921 18.2615 9.02512 18.3829 9.07544C18.5043 9.12576 18.6146 9.19952 18.7075 9.2925ZM26 13C26 15.5712 25.2376 18.0846 23.8091 20.2224C22.3807 22.3603 20.3503 24.0265 17.9749 25.0104C15.5995 25.9944 12.9856 26.2518 10.4638 25.7502C7.94208 25.2486 5.6257 24.0105 3.80762 22.1924C1.98953 20.3743 0.751405 18.0579 0.249797 15.5362C-0.251811 13.0144 0.00563269 10.4006 0.989572 8.02512C1.97351 5.64968 3.63975 3.61935 5.77759 2.1909C7.91543 0.762437 10.4288 0 13 0C16.4467 0.00363977 19.7512 1.37445 22.1884 3.81163C24.6256 6.24882 25.9964 9.5533 26 13ZM24 13C24 10.8244 23.3549 8.69767 22.1462 6.88873C20.9375 5.07979 19.2195 3.66989 17.2095 2.83733C15.1995 2.00476 12.9878 1.78692 10.854 2.21136C8.72022 2.6358 6.76021 3.68345 5.22183 5.22183C3.68345 6.7602 2.63581 8.72022 2.21137 10.854C1.78693 12.9878 2.00477 15.1995 2.83733 17.2095C3.66989 19.2195 5.07979 20.9375 6.88873 22.1462C8.69767 23.3549 10.8244 24 13 24C15.9164 23.9967 18.7123 22.8367 20.7745 20.7745C22.8367 18.7123 23.9967 15.9164 24 13Z" fill="currentColor"/></symbol><symbol viewBox="0 0 32 32" fill="none" id="svg-check-circle-thin"><path d="M21.7075 12.2925C21.8005 12.3854 21.8742 12.4957 21.9246 12.6171C21.9749 12.7385 22.0008 12.8686 22.0008 13C22.0008 13.1314 21.9749 13.2615 21.9246 13.3829C21.8742 13.5043 21.8005 13.6146 21.7075 13.7075L14.7075 20.7075C14.6146 20.8005 14.5043 20.8742 14.3829 20.9246C14.2615 20.9749 14.1314 21.0008 14 21.0008C13.8686 21.0008 13.7385 20.9749 13.6171 20.9246C13.4957 20.8742 13.3854 20.8005 13.2925 20.7075L10.2925 17.7075C10.1049 17.5199 9.99945 17.2654 9.99945 17C9.99945 16.7346 10.1049 16.4801 10.2925 16.2925C10.4801 16.1049 10.7346 15.9994 11 15.9994C11.2654 15.9994 11.5199 16.1049 11.7075 16.2925L14 18.5863L20.2925 12.2925C20.3854 12.1995 20.4957 12.1258 20.6171 12.0754C20.7385 12.0251 20.8686 11.9992 21 11.9992C21.1314 11.9992 21.2615 12.0251 21.3829 12.0754C21.5043 12.1258 21.6146 12.1995 21.7075 12.2925ZM29 16C29 18.5712 28.2376 21.0846 26.8091 23.2224C25.3807 25.3603 23.3503 27.0265 20.9749 28.0104C18.5995 28.9944 15.9856 29.2518 13.4638 28.7502C10.9421 28.2486 8.6257 27.0105 6.80762 25.1924C4.98953 23.3743 3.75141 21.0579 3.2498 18.5362C2.74819 16.0144 3.00563 13.4006 3.98957 11.0251C4.97351 8.64968 6.63975 6.61935 8.77759 5.1909C10.9154 3.76244 13.4288 3 16 3C19.4467 3.00364 22.7512 4.37445 25.1884 6.81163C27.6256 9.24882 28.9964 12.5533 29 16ZM27 16C27 13.8244 26.3549 11.6977 25.1462 9.88873C23.9375 8.07979 22.2195 6.66989 20.2095 5.83733C18.1995 5.00476 15.9878 4.78692 13.854 5.21136C11.7202 5.6358 9.76021 6.68345 8.22183 8.22183C6.68345 9.7602 5.63581 11.7202 5.21137 13.854C4.78693 15.9878 5.00477 18.1995 5.83733 20.2095C6.66989 22.2195 8.07979 23.9375 9.88873 25.1462C11.6977 26.3549 13.8244 27 16 27C18.9164 26.9967 21.7123 25.8367 23.7745 23.7745C25.8367 21.7123 26.9967 18.9164 27 16Z" fill="currentColor"/></symbol><symbol viewBox="0 0 20 20" fill="none" id="svg-chevron-down"><path d="M5 7.5L10 12.5L15 7.5" stroke="currentColor" stroke-width="1.6" stroke-linecap="round" stroke-linejoin="round"/></symbol><symbol viewBox="10 10 24 24" fill="none" id="svg-chevron-left"><path d="M30.8125 22.0001C30.8125 22.1493 30.7532 22.2924 30.6477 22.3979C30.5423 22.5034 30.3992 22.5626 30.25 22.5626H15.1084L20.8975 28.3526C20.9528 28.4041 20.9971 28.4662 21.0278 28.5352C21.0586 28.6042 21.0751 28.6787 21.0764 28.7542C21.0778 28.8298 21.0639 28.9048 21.0356 28.9748C21.0073 29.0449 20.9652 29.1085 20.9118 29.1619C20.8584 29.2153 20.7947 29.2574 20.7247 29.2857C20.6546 29.314 20.5796 29.3279 20.5041 29.3266C20.4286 29.3252 20.3541 29.3087 20.2851 29.278C20.2161 29.2472 20.154 29.2029 20.1025 29.1476L13.3525 22.3976C13.2472 22.2922 13.188 22.1492 13.188 22.0001C13.188 21.8511 13.2472 21.7081 13.3525 21.6026L20.1025 14.8526C20.2091 14.7533 20.3502 14.6992 20.4959 14.7017C20.6416 14.7043 20.7806 14.7634 20.8837 14.8664C20.9868 14.9695 21.0458 15.1085 21.0484 15.2542C21.0509 15.4 20.9969 15.541 20.8975 15.6476L15.1084 21.4376H30.25C30.3992 21.4376 30.5423 21.4969 30.6477 21.6024C30.7532 21.7079 30.8125 21.8509 30.8125 22.0001Z" fill="currentColor"/></symbol><symbol viewBox="10 10 24 24" fill="none" id="svg-chevron-right"><path d="M30.6475 22.3976L23.8975 29.1476C23.7909 29.247 23.6498 29.3011 23.5041 29.2985C23.3584 29.2959 23.2193 29.2369 23.1163 29.1338C23.0132 29.0308 22.9542 28.8917 22.9516 28.746C22.949 28.6003 23.0031 28.4593 23.1025 28.3526L28.8916 22.5626H13.75C13.6008 22.5626 13.4577 22.5034 13.3523 22.3979C13.2468 22.2924 13.1875 22.1493 13.1875 22.0001C13.1875 21.8509 13.2468 21.7079 13.3523 21.6024C13.4577 21.4969 13.6008 21.4376 13.75 21.4376H28.8916L23.1025 15.6476C23.0031 15.541 22.949 15.4 22.9516 15.2542C22.9542 15.1085 23.0132 14.9695 23.1163 14.8664C23.2193 14.7634 23.3584 14.7043 23.5041 14.7017C23.6498 14.6992 23.7909 14.7533 23.8975 14.8526L30.6475 21.6026C30.7528 21.7081 30.812 21.8511 30.812 22.0001C30.812 22.1492 30.7528 22.2922 30.6475 22.3976Z" fill="currentColor"/></symbol><symbol viewBox="0 0 26 26" fill="none" id="svg-circle-right-fill"><path d="M13 0C10.4288 0 7.91543 0.762437 5.77759 2.1909C3.63975 3.61935 1.97351 5.64968 0.989572 8.02512C0.00563269 10.4006 -0.251811 13.0144 0.249797 15.5362C0.751405 18.0579 1.98953 20.3743 3.80762 22.1924C5.6257 24.0105 7.94208 25.2486 10.4638 25.7502C12.9856 26.2518 15.5995 25.9944 17.9749 25.0104C20.3503 24.0265 22.3807 22.3603 23.8091 20.2224C25.2376 18.0846 26 15.5712 26 13C25.9964 9.5533 24.6256 6.24882 22.1884 3.81163C19.7512 1.37445 16.4467 0.00363977 13 0ZM18.7075 13.7075L14.7075 17.7075C14.5199 17.8951 14.2654 18.0006 14 18.0006C13.7346 18.0006 13.4801 17.8951 13.2925 17.7075C13.1049 17.5199 12.9994 17.2654 12.9994 17C12.9994 16.7346 13.1049 16.4801 13.2925 16.2925L15.5863 14H8.00001C7.73479 14 7.48044 13.8946 7.2929 13.7071C7.10536 13.5196 7.00001 13.2652 7.00001 13C7.00001 12.7348 7.10536 12.4804 7.2929 12.2929C7.48044 12.1054 7.73479 12 8.00001 12H15.5863L13.2925 9.7075C13.1049 9.51986 12.9994 9.26536 12.9994 9C12.9994 8.73464 13.1049 8.48014 13.2925 8.2925C13.4801 8.10486 13.7346 7.99944 14 7.99944C14.2654 7.99944 14.5199 8.10486 14.7075 8.2925L18.7075 12.2925C18.8005 12.3854 18.8742 12.4957 18.9246 12.6171C18.9749 12.7385 19.0008 12.8686 19.0008 13C19.0008 13.1314 18.9749 13.2615 18.9246 13.3829C18.8742 13.5043 18.8005 13.6146 18.7075 13.7075Z" fill="currentColor"/></symbol><symbol viewBox="0 0 24 24" fill="none" id="svg-close"><path d="M6 6L18 18M18 6L6 18" stroke="currentColor" stroke-width="2" stroke-linecap="round"/></symbol><symbol viewBox="0 0 20 20.9999" fill="none" id="svg-linkedin"><g><path d="M4.48635 7.49992C4.4876 7.50003 4.49124 7.50009 4.49611 7.5009C4.49746 7.50112 4.49873 7.50162 4.50002 7.50187V20.4892L4.49904 20.496C4.49882 20.4974 4.49832 20.4986 4.49807 20.4999H0.513692C0.512438 20.4998 0.508799 20.4998 0.503926 20.4989C0.502516 20.4987 0.501368 20.4973 0.50002 20.497V7.51359C0.500129 7.51234 0.500185 7.5087 0.500997 7.50383C0.501222 7.50248 0.501724 7.50121 0.501973 7.49992H4.48635Z" fill="currentColor"/><path d="M2.48002 4.99992C2.97531 5.00388 3.46061 4.86064 3.87435 4.58835C4.2881 4.31607 4.61164 3.92702 4.80393 3.47057C4.99622 3.01412 5.04859 2.51083 4.9544 2.02457C4.8602 1.53831 4.62369 1.09098 4.27487 0.739348C3.92605 0.387713 3.48064 0.147617 2.99515 0.049522C2.50966 -0.0485732 2.00597 -0.00024657 1.54799 0.188371C1.09001 0.376988 0.698373 0.697394 0.422775 1.10894C0.147177 1.52048 3.60124e-05 2.00462 2.01625e-05 2.49992C-0.0012957 2.82691 0.061808 3.15096 0.185728 3.45357C0.309648 3.75617 0.491957 4.0314 0.722247 4.26355C0.952537 4.4957 1.2263 4.68021 1.5279 4.80656C1.8295 4.93291 2.15303 4.99861 2.48002 4.99992Z" fill="currentColor"/><path d="M16.5 20.9999H19.5C19.6326 20.9999 19.7598 20.9472 19.8536 20.8535C19.9473 20.7597 20 20.6325 20 20.4999V12.0999C20 8.32992 17.87 6.49992 14.89 6.49992C14.2999 6.47892 13.712 6.582 13.1642 6.80249C12.6164 7.02297 12.121 7.35596 11.71 7.77992C11.6542 7.84056 11.5805 7.88194 11.4997 7.89811C11.4188 7.91428 11.3349 7.90441 11.26 7.86992C11.1844 7.84168 11.1191 7.79122 11.0727 7.72519C11.0263 7.65915 11.001 7.58062 11 7.49992C11 7.36731 10.9473 7.24014 10.8536 7.14637C10.7598 7.0526 10.6326 6.99992 10.5 6.99992H7.50002C7.36741 6.99992 7.24023 7.0526 7.14647 7.14637C7.0527 7.24014 7.00002 7.36731 7.00002 7.49992V20.4999C7.00002 20.6325 7.0527 20.7597 7.14647 20.8535C7.24023 20.9472 7.36741 20.9999 7.50002 20.9999H10.5C10.6326 20.9999 10.7598 20.9472 10.8536 20.8535C10.9473 20.7597 11 20.6325 11 20.4999V12.9999C11 12.3369 11.2634 11.701 11.7323 11.2322C12.2011 10.7633 12.837 10.4999 13.5 10.4999C14.1631 10.4999 14.7989 10.7633 15.2678 11.2322C15.7366 11.701 16 12.3369 16 12.9999V20.4999C16 20.6325 16.0527 20.7597 16.1465 20.8535C16.2402 20.9472 16.3674 20.9999 16.5 20.9999Z" fill="currentColor"/></g></symbol><symbol viewBox="0 0 26 20" fill="none" id="svg-mail"><path d="M25 0H1C0.734784 0 0.48043 0.105357 0.292893 0.292893C0.105357 0.48043 0 0.734784 0 1V18C0 18.5304 0.210714 19.0391 0.585786 19.4142C0.960859 19.7893 1.46957 20 2 20H24C24.5304 20 25.0391 19.7893 25.4142 19.4142C25.7893 19.0391 26 18.5304 26 18V1C26 0.734784 25.8946 0.48043 25.7071 0.292893C25.5196 0.105357 25.2652 0 25 0ZM13 10.6437L3.57125 2H22.4287L13 10.6437ZM9.33875 10L2 16.7262V3.27375L9.33875 10ZM10.8188 11.3563L12.3188 12.7375C12.5032 12.9069 12.7446 13.0008 12.995 13.0008C13.2454 13.0008 13.4868 12.9069 13.6712 12.7375L15.1712 11.3563L22.4212 18H3.57125L10.8188 11.3563ZM16.6612 10L24 3.2725V16.7275L16.6612 10Z" fill="currentColor"/></symbol><symbol preserveAspectRatio="none" viewBox="0 0 24.9998 24.9998" fill="none" id="svg-phone"><path d="M23.7963 16.8072L17.9075 14.1685L17.8913 14.161C17.5856 14.0302 17.2521 13.9778 16.921 14.0083C16.5899 14.0389 16.2716 14.1515 15.995 14.336C15.9624 14.3575 15.9311 14.3809 15.9013 14.406L12.8588 16.9997C10.9313 16.0635 8.94126 14.0885 8.00501 12.186L10.6025 9.09725C10.6275 9.066 10.6513 9.03475 10.6738 9.001C10.8543 8.72512 10.9638 8.4089 10.9926 8.08046C11.0214 7.75203 10.9686 7.42157 10.8388 7.1185V7.1035L8.19251 1.20475C8.02094 0.808828 7.72592 0.479016 7.35149 0.264545C6.97707 0.0500744 6.54333 -0.0375518 6.11501 0.0147471C4.42122 0.23763 2.86649 1.06946 1.74118 2.35487C0.61587 3.64028 -0.00305116 5.29136 1.13108e-05 6.99975C1.13108e-05 16.9247 8.07501 24.9997 18 24.9997C19.7084 25.0028 21.3595 24.3839 22.6449 23.2586C23.9303 22.1333 24.7621 20.5785 24.985 18.8847C25.0374 18.4566 24.95 18.0229 24.7357 17.6485C24.5215 17.2741 24.1919 16.979 23.7963 16.8072ZM18 22.9997C13.758 22.9951 9.691 21.3079 6.69142 18.3083C3.69184 15.3088 2.00464 11.2418 2.00001 6.99975C1.99531 5.77911 2.43507 4.59849 3.23718 3.67838C4.03929 2.75827 5.14889 2.16158 6.35876 1.99975C6.35827 2.00473 6.35827 2.00976 6.35876 2.01475L8.98376 7.88975L6.40001 10.9822C6.37379 11.0124 6.34996 11.0446 6.32876 11.0785C6.14066 11.3671 6.0303 11.6995 6.0084 12.0433C5.9865 12.3872 6.0538 12.7308 6.20376 13.041C7.33626 15.3572 9.67001 17.6735 12.0113 18.8047C12.3237 18.9533 12.6694 19.0183 13.0144 18.9933C13.3595 18.9683 13.6922 18.8543 13.98 18.6622C14.0121 18.6406 14.043 18.6173 14.0725 18.5922L17.1113 15.9997L22.9863 18.631C22.9863 18.631 22.9963 18.631 23 18.631C22.8402 19.8426 22.2444 20.9544 21.3241 21.7585C20.4038 22.5626 19.2221 23.0039 18 22.9997Z" fill="currentColor"/></symbol><symbol viewBox="0 0 59.0002 40.8271" fill="none" id="svg-quote"><path d="M34.1944 0C35.4325 0 36.2447 1.29455 35.7071 2.40918L9.37998 39.8779C9.09926 40.4586 8.51194 40.8271 7.86729 40.8271H1.68174C0.443726 40.8271 -0.369321 39.5326 0.169047 38.418L18.2667 0.949219C18.5465 0.368572 19.1347 0 19.7794 0H34.1944ZM57.3185 0C58.5565 0 59.3696 1.29456 58.8312 2.40918L32.504 39.8779C32.2233 40.4586 31.636 40.8271 30.9913 40.8271H24.8058C23.5677 40.8271 22.7546 39.5326 23.2931 38.418L41.3907 0.949219C41.6705 0.368572 42.2588 0 42.9034 0H57.3185Z" fill="currentColor"/></symbol><symbol viewBox="0 0 24 24" fill="none" id="svg-search"><path d="M21.5299 20.4693L16.8358 15.7762C18.1963 14.1428 18.8748 12.0478 18.73 9.92691C18.5852 7.80604 17.6283 5.82265 16.0584 4.38932C14.4885 2.95599 12.4264 2.18308 10.3012 2.23138C8.1759 2.27968 6.15108 3.14547 4.64791 4.64864C3.14474 6.15181 2.27895 8.17663 2.23065 10.3019C2.18235 12.4271 2.95526 14.4892 4.38859 16.0591C5.82191 17.629 7.80531 18.5859 9.92618 18.7307C12.047 18.8755 14.1421 18.1971 15.7755 16.8365L20.4686 21.5306C20.5383 21.6003 20.621 21.6556 20.7121 21.6933C20.8031 21.731 20.9007 21.7504 20.9992 21.7504C21.0978 21.7504 21.1954 21.731 21.2864 21.6933C21.3775 21.6556 21.4602 21.6003 21.5299 21.5306C21.5995 21.4609 21.6548 21.3782 21.6925 21.2871C21.7302 21.1961 21.7497 21.0985 21.7497 21C21.7497 20.9014 21.7302 20.8038 21.6925 20.7128C21.6548 20.6218 21.5995 20.539 21.5299 20.4693ZM3.74924 10.5C3.74924 9.16495 4.14512 7.8599 4.88682 6.74987C5.62852 5.63984 6.68272 4.77467 7.91612 4.26378C9.14953 3.75289 10.5067 3.61922 11.8161 3.87967C13.1255 4.14012 14.3282 4.78299 15.2722 5.727C16.2162 6.671 16.8591 7.87374 17.1195 9.18311C17.38 10.4925 17.2463 11.8497 16.7354 13.0831C16.2245 14.3165 15.3594 15.3707 14.2493 16.1124C13.1393 16.8541 11.8343 17.25 10.4992 17.25C8.70964 17.248 6.9939 16.5362 5.72846 15.2708C4.46302 14.0053 3.75122 12.2896 3.74924 10.5Z" fill="currentColor"/></symbol><symbol viewBox="0 0 24 24" fill="none" id="svg-search-line"><path d="M11 19C15.4183 19 19 15.4183 19 11C19 6.58172 15.4183 3 11 3C6.58172 3 3 6.58172 3 11C3 15.4183 6.58172 19 11 19Z" stroke="currentColor" stroke-width="2" stroke-linecap="round" stroke-linejoin="round"/><path d="M21 21L16.65 16.65" stroke="currentColor" stroke-width="2" stroke-linecap="round" stroke-linejoin="round"/></symbol><symbol viewBox="0 0 24 24" fill="none" id="svg-squares-four"><path d="M9.75 3.75H5.25C4.85218 3.75 4.47064 3.90804 4.18934 4.18934C3.90804 4.47064 3.75 4.85218 3.75 5.25V9.75C3.75 10.1478 3.90804 10.5294 4.18934 10.8107C4.47064 11.092 4.85218 11.25 5.25 11.25H9.75C10.1478 11.25 10.5294 11.092 10.8107 10.8107C11.092 10.5294 11.25 10.1478 11.25 9.75V5.25C11.25 4.85218 11.092 4.47064 10.8107 4.18934C10.5294 3.90804 10.1478 3.75 9.75 3.75ZM9.75 9.75H5.25V5.25H9.75V9.75ZM18.75 3.75H14.25C13.8522 3.75 13.4706 3.90804 13.1893 4.18934C12.908 4.47064 12.75 4.85218 12.75 5.25V9.75C12.75 10.1478 12.908 10.5294 13.1893 10.8107C13.4706 11.092 13.8522 11.25 14.25 11.25H18.75C19.1478 11.25 19.5294 11.092 19.8107 10.8107C20.092 10.5294 20.25 10.1478 20.25 9.75V5.25C20.25 4.85218 20.092 4.47064 19.8107 4.18934C19.5294 3.90804 19.1478 3.75 18.75 3.75ZM18.75 9.75H14.25V5.25H18.75V9.75ZM9.75 12.75H5.25C4.85218 12.75 4.47064 12.908 4.18934 13.1893C3.90804 13.4706 3.75 13.8522 3.75 14.25V18.75C3.75 19.1478 3.90804 19.5294 4.18934 19.8107C4.47064 20.092 4.85218 20.25 5.25 20.25H9.75C10.1478 20.25 10.5294 20.092 10.8107 19.8107C11.092 19.5294 11.25 19.1478 11.25 18.75V14.25C11.25 13.8522 11.092 13.4706 10.8107 13.1893C10.5294 12.908 10.1478 12.75 9.75 12.75ZM9.75 18.75H5.25V14.25H9.75V18.75ZM18.75 12.75H14.25C13.8522 12.75 13.4706 12.908 13.1893 13.1893C12.908 13.4706 12.75 13.8522 12.75 14.25V18.75C12.75 19.1478 12.908 19.5294 13.1893 19.8107C13.4706 20.092 13.8522 20.25 14.25 20.25H18.75C19.1478 20.25 19.5294 20.092 19.8107 19.8107C20.092 19.5294 20.25 19.1478 20.25 18.75V14.25C20.25 13.8522 20.092 13.4706 19.8107 13.1893C19.5294 12.908 19.1478 12.75 18.75 12.75ZM18.75 18.75H14.25V14.25H18.75V18.75Z" fill="currentColor"/></symbol></svg>