<svg preserveAspectRatio="none" width="100%" height="100%" overflow="visible" style="display: block;" viewBox="0 0 37.5012 31.2366" fill="none" xmlns="http://www.w3.org/2000/svg">
<path id="Vector" d="M37.5012 15.6183C37.4995 13.9626 37.029 12.3411 36.1442 10.9417C35.2593 9.54221 33.9963 8.42193 32.5012 7.71047V7.49329C32.4997 5.88269 31.9799 4.31534 31.0185 3.02315C30.0571 1.73096 28.7053 0.782576 27.163 0.318328C25.6208 -0.14592 23.9701 -0.10137 22.4551 0.445387C20.9402 0.992143 19.6415 2.01206 18.7512 3.35422C17.8609 2.01206 16.5622 0.992143 15.0472 0.445387C13.5323 -0.10137 11.8816 -0.14592 10.3393 0.318328C8.79709 0.782576 7.44526 1.73096 6.48388 3.02315C5.52249 4.31534 5.00261 5.88269 5.00117 7.49329V7.71047C3.50482 8.41998 2.24054 9.53956 1.35525 10.9391C0.469953 12.3386 0 13.9607 0 15.6167C0 17.2728 0.469953 18.8948 1.35525 20.2943C2.24054 21.6939 3.50482 22.8135 5.00117 23.523V23.7433C5.00261 25.3539 5.52249 26.9212 6.48388 28.2134C7.44526 29.5056 8.79709 30.454 10.3393 30.9182C11.8816 31.3825 13.5323 31.3379 15.0472 30.7912C16.5622 30.2444 17.8609 29.2245 18.7512 27.8823C19.6415 29.2245 20.9402 30.2444 22.4551 30.7912C23.9701 31.3379 25.6208 31.3825 27.163 30.9182C28.7053 30.454 30.0571 29.5056 31.0185 28.2134C31.9799 26.9212 32.4997 25.3539 32.5012 23.7433V23.523C33.996 22.812 35.259 21.6923 36.1438 20.2934C37.0287 18.8945 37.4993 17.2736 37.5012 15.6183ZM12.5012 28.7433C11.2683 28.7431 10.0789 28.2874 9.16152 27.4638C8.24413 26.6401 7.6634 25.5065 7.53086 24.2808C7.93508 24.3385 8.34286 24.3677 8.75117 24.3683H10.0012C10.3327 24.3683 10.6506 24.2366 10.8851 24.0022C11.1195 23.7678 11.2512 23.4498 11.2512 23.1183C11.2512 22.7868 11.1195 22.4688 10.8851 22.2344C10.6506 22 10.3327 21.8683 10.0012 21.8683H8.75117C7.27548 21.87 5.84678 21.3495 4.71801 20.399C3.58924 19.4484 2.83322 18.1291 2.58379 16.6747C2.33437 15.2202 2.60763 13.7244 3.3552 12.4521C4.10276 11.1798 5.27641 10.213 6.66836 9.72297C6.91191 9.63674 7.12276 9.47717 7.27189 9.26619C7.42103 9.05522 7.50113 8.80321 7.50117 8.54485V7.49329C7.50117 6.1672 8.02796 4.89543 8.96564 3.95775C9.90332 3.02007 11.1751 2.49329 12.5012 2.49329C13.8273 2.49329 15.099 3.02007 16.0367 3.95775C16.9744 4.89543 17.5012 6.1672 17.5012 7.49329V18.1589C16.1285 16.9244 14.3473 16.2419 12.5012 16.2433C12.1697 16.2433 11.8517 16.375 11.6173 16.6094C11.3829 16.8438 11.2512 17.1618 11.2512 17.4933C11.2512 17.8248 11.3829 18.1428 11.6173 18.3772C11.8517 18.6116 12.1697 18.7433 12.5012 18.7433C13.8273 18.7433 15.099 19.2701 16.0367 20.2078C16.9744 21.1454 17.5012 22.4172 17.5012 23.7433C17.5012 25.0694 16.9744 26.3411 16.0367 27.2788C15.099 28.2165 13.8273 28.7433 12.5012 28.7433ZM28.7512 21.8683H27.5012C27.1697 21.8683 26.8517 22 26.6173 22.2344C26.3829 22.4688 26.2512 22.7868 26.2512 23.1183C26.2512 23.4498 26.3829 23.7678 26.6173 24.0022C26.8517 24.2366 27.1697 24.3683 27.5012 24.3683H28.7512C29.1595 24.3677 29.5673 24.3385 29.9715 24.2808C29.8676 25.2412 29.4878 26.151 28.8779 26.9001C28.268 27.6492 27.4541 28.2057 26.5347 28.5021C25.6153 28.7985 24.6297 28.8222 23.6971 28.5704C22.7645 28.3186 21.9248 27.802 21.2795 27.0831C20.6342 26.3642 20.211 25.4738 20.0611 24.5195C19.9111 23.5652 20.0408 22.5879 20.4345 21.7057C20.8281 20.8235 21.4689 20.0743 22.2794 19.5486C23.0898 19.0229 24.0352 18.7431 25.0012 18.7433C25.3327 18.7433 25.6506 18.6116 25.8851 18.3772C26.1195 18.1428 26.2512 17.8248 26.2512 17.4933C26.2512 17.1618 26.1195 16.8438 25.8851 16.6094C25.6506 16.375 25.3327 16.2433 25.0012 16.2433C23.155 16.2419 21.3738 16.9244 20.0012 18.1589V7.49329C20.0012 6.1672 20.528 4.89543 21.4656 3.95775C22.4033 3.02007 23.6751 2.49329 25.0012 2.49329C26.3273 2.49329 27.599 3.02007 28.5367 3.95775C29.4744 4.89543 30.0012 6.1672 30.0012 7.49329V8.54485C30.0012 8.80321 30.0813 9.05522 30.2305 9.26619C30.3796 9.47717 30.5904 9.63674 30.834 9.72297C32.2259 10.213 33.3996 11.1798 34.1472 12.4521C34.8947 13.7244 35.168 15.2202 34.9186 16.6747C34.6691 18.1291 33.9131 19.4484 32.7843 20.399C31.6556 21.3495 30.2269 21.87 28.7512 21.8683ZM31.2512 13.7433C31.2512 14.0748 31.1195 14.3927 30.8851 14.6272C30.6506 14.8616 30.3327 14.9933 30.0012 14.9933H29.3762C27.8843 14.9933 26.4536 14.4007 25.3987 13.3458C24.3438 12.2909 23.7512 10.8601 23.7512 9.36829V8.74329C23.7512 8.41177 23.8829 8.09382 24.1173 7.8594C24.3517 7.62498 24.6697 7.49329 25.0012 7.49329C25.3327 7.49329 25.6506 7.62498 25.8851 7.8594C26.1195 8.09382 26.2512 8.41177 26.2512 8.74329V9.36829C26.2512 10.1971 26.5804 10.9919 27.1665 11.578C27.7525 12.164 28.5474 12.4933 29.3762 12.4933H30.0012C30.3327 12.4933 30.6506 12.625 30.8851 12.8594C31.1195 13.0938 31.2512 13.4118 31.2512 13.7433ZM8.12617 14.9933H7.50117C7.16965 14.9933 6.85171 14.8616 6.61729 14.6272C6.38287 14.3927 6.25117 14.0748 6.25117 13.7433C6.25117 13.4118 6.38287 13.0938 6.61729 12.8594C6.85171 12.625 7.16965 12.4933 7.50117 12.4933H8.12617C8.95497 12.4933 9.74983 12.164 10.3359 11.578C10.9219 10.9919 11.2512 10.1971 11.2512 9.36829V8.74329C11.2512 8.41177 11.3829 8.09382 11.6173 7.8594C11.8517 7.62498 12.1697 7.49329 12.5012 7.49329C12.8327 7.49329 13.1506 7.62498 13.3851 7.8594C13.6195 8.09382 13.7512 8.41177 13.7512 8.74329V9.36829C13.7512 10.8601 13.1585 12.2909 12.1036 13.3458C11.0488 14.4007 9.61802 14.9933 8.12617 14.9933Z" fill="var(--fill-0, #229591)"/>
</svg>
