<svg width="140" height="140" viewBox="0 0 140 140" fill="none" xmlns="http://www.w3.org/2000/svg">

<g id="S-icons/services-Organisational Design (navy)">
<path id="Vector" d="M70 130.985V119.318M96.9792 127.963L91.1458 117.86M43.0208 127.963L48.8541 117.86M70 2.65161V14.3183M96.9792 5.67299L91.1458 15.7766M43.0208 5.67299L48.8542 15.7766M70.1581 40.5683H88.7104V39.1099C88.7104 35.6292 90.0632 32.2908 92.4712 29.8291C94.8792 27.3677 98.1447 25.9849 101.55 25.9849C104.956 25.9849 108.221 27.3677 110.629 29.8291C113.037 32.2908 114.39 35.6292 114.39 39.1099V40.5683H131.567V95.9849C131.567 97.5319 130.965 99.0159 129.895 100.11C128.825 101.203 127.373 101.818 125.86 101.818H70.1581M70.1581 40.5683V58.0683H71.5843C74.9898 58.0683 78.2559 59.4514 80.6633 61.9124C83.0713 64.3741 84.4241 67.7125 84.4241 71.1933C84.4241 74.674 83.0713 78.0124 80.6633 80.4741C78.2559 82.9352 74.9898 84.3183 71.5843 84.3183H70.1581V101.818M70.1581 40.5683H52.9185V42.0266C52.9185 45.5074 51.5658 48.8458 49.1578 51.3074C46.7499 53.7685 43.4841 55.1516 40.0788 55.1516C36.6735 55.1516 33.4077 53.7685 30.9998 51.3074C28.5919 48.8458 27.2392 45.5074 27.2392 42.0266V40.5683H8.75V95.9849C8.75 97.5319 9.35124 99.0159 10.4214 100.11C11.4916 101.203 12.9431 101.818 14.4565 101.818H70.1581" stroke="#17254C" stroke-width="3" stroke-linecap="round" stroke-linejoin="round"/>
</g>
</svg>
